<mxfile host="app.diagrams.net" modified="2023-08-21T07:19:33.772Z" agent="Mozilla/5.0 (Windows NT 10.0; Win64; x64) AppleWebKit/537.36 (KHTML, like Gecko) Chrome/116.0.0.0 Safari/537.36" etag="Elr_JNno32cq8tAw-KwG" version="21.6.8" type="github">
  <diagram name="Page-1" id="zujg4WuDFfAwfEXx-NF8">
    <mxGraphModel dx="1615" dy="888" grid="0" gridSize="10" guides="1" tooltips="1" connect="1" arrows="1" fold="1" page="1" pageScale="1" pageWidth="1100" pageHeight="850" math="0" shadow="0">
      <root>
        <mxCell id="0" />
        <mxCell id="1" parent="0" />
        <mxCell id="CzPe7Ae9h63irt5hN7bt-11" value="" style="edgeStyle=orthogonalEdgeStyle;rounded=0;orthogonalLoop=1;jettySize=auto;html=1;exitX=0.5;exitY=1;exitDx=0;exitDy=0;" edge="1" parent="1" source="0FTmsgRkvAeSvxOTB-Lc-1" target="CzPe7Ae9h63irt5hN7bt-7">
          <mxGeometry relative="1" as="geometry">
            <mxPoint x="70" y="330" as="targetPoint" />
          </mxGeometry>
        </mxCell>
        <mxCell id="0FTmsgRkvAeSvxOTB-Lc-1" value="Style -Met Gala or&amp;nbsp;&lt;br&gt;Lakme Fashion Week" style="rounded=0;whiteSpace=wrap;html=1;fillColor=#fff2cc;strokeColor=#d6b656;" parent="1" vertex="1">
          <mxGeometry x="10" y="160" width="120" height="60" as="geometry" />
        </mxCell>
        <mxCell id="CzPe7Ae9h63irt5hN7bt-12" style="edgeStyle=orthogonalEdgeStyle;rounded=0;orthogonalLoop=1;jettySize=auto;html=1;exitX=0.5;exitY=1;exitDx=0;exitDy=0;" edge="1" parent="1" source="0FTmsgRkvAeSvxOTB-Lc-2" target="CzPe7Ae9h63irt5hN7bt-7">
          <mxGeometry relative="1" as="geometry" />
        </mxCell>
        <mxCell id="CzPe7Ae9h63irt5hN7bt-37" value="" style="edgeStyle=orthogonalEdgeStyle;rounded=0;orthogonalLoop=1;jettySize=auto;html=1;" edge="1" parent="1" source="0FTmsgRkvAeSvxOTB-Lc-2" target="0FTmsgRkvAeSvxOTB-Lc-1">
          <mxGeometry relative="1" as="geometry" />
        </mxCell>
        <mxCell id="0FTmsgRkvAeSvxOTB-Lc-2" value="Previous average price" style="rounded=0;whiteSpace=wrap;html=1;fillColor=#f8cecc;strokeColor=#b85450;gradientColor=#ea6b66;" parent="1" vertex="1">
          <mxGeometry x="178" y="160" width="120" height="60" as="geometry" />
        </mxCell>
        <mxCell id="CzPe7Ae9h63irt5hN7bt-13" value="" style="edgeStyle=orthogonalEdgeStyle;rounded=0;orthogonalLoop=1;jettySize=auto;html=1;" edge="1" parent="1" source="0FTmsgRkvAeSvxOTB-Lc-4" target="CzPe7Ae9h63irt5hN7bt-7">
          <mxGeometry relative="1" as="geometry" />
        </mxCell>
        <mxCell id="0FTmsgRkvAeSvxOTB-Lc-4" value="Size,weight,age" style="rounded=0;whiteSpace=wrap;html=1;fillColor=#cce5ff;strokeColor=#36393d;" parent="1" vertex="1">
          <mxGeometry x="350" y="160" width="120" height="60" as="geometry" />
        </mxCell>
        <mxCell id="CzPe7Ae9h63irt5hN7bt-16" style="edgeStyle=orthogonalEdgeStyle;rounded=0;orthogonalLoop=1;jettySize=auto;html=1;exitX=0.5;exitY=1;exitDx=0;exitDy=0;" edge="1" parent="1" source="0FTmsgRkvAeSvxOTB-Lc-5" target="CzPe7Ae9h63irt5hN7bt-7">
          <mxGeometry relative="1" as="geometry" />
        </mxCell>
        <mxCell id="0FTmsgRkvAeSvxOTB-Lc-5" value="Gender /location&amp;nbsp;" style="rounded=0;whiteSpace=wrap;html=1;fillColor=#fff2cc;gradientColor=#ffd966;strokeColor=#d6b656;" parent="1" vertex="1">
          <mxGeometry x="730" y="160" width="120" height="60" as="geometry" />
        </mxCell>
        <mxCell id="CzPe7Ae9h63irt5hN7bt-14" style="edgeStyle=orthogonalEdgeStyle;rounded=0;orthogonalLoop=1;jettySize=auto;html=1;entryX=0.5;entryY=0;entryDx=0;entryDy=0;exitX=0.5;exitY=1;exitDx=0;exitDy=0;" edge="1" parent="1" source="0FTmsgRkvAeSvxOTB-Lc-6" target="CzPe7Ae9h63irt5hN7bt-7">
          <mxGeometry relative="1" as="geometry" />
        </mxCell>
        <mxCell id="0FTmsgRkvAeSvxOTB-Lc-6" value="Favourite color" style="rounded=0;whiteSpace=wrap;html=1;fillColor=#ffcc99;strokeColor=#36393d;" parent="1" vertex="1">
          <mxGeometry x="550" y="160" width="120" height="60" as="geometry" />
        </mxCell>
        <mxCell id="CzPe7Ae9h63irt5hN7bt-18" value="" style="edgeStyle=orthogonalEdgeStyle;rounded=0;orthogonalLoop=1;jettySize=auto;html=1;" edge="1" parent="1" source="CzPe7Ae9h63irt5hN7bt-17" target="CzPe7Ae9h63irt5hN7bt-7">
          <mxGeometry relative="1" as="geometry" />
        </mxCell>
        <mxCell id="CzPe7Ae9h63irt5hN7bt-36" value="" style="edgeStyle=orthogonalEdgeStyle;rounded=0;orthogonalLoop=1;jettySize=auto;html=1;" edge="1" parent="1" source="CzPe7Ae9h63irt5hN7bt-7" target="CzPe7Ae9h63irt5hN7bt-35">
          <mxGeometry relative="1" as="geometry" />
        </mxCell>
        <mxCell id="CzPe7Ae9h63irt5hN7bt-7" value="Image Generation Model" style="ellipse;whiteSpace=wrap;html=1;aspect=fixed;fillColor=#ffff88;strokeColor=#36393d;" vertex="1" parent="1">
          <mxGeometry x="355" y="290" width="110" height="110" as="geometry" />
        </mxCell>
        <mxCell id="CzPe7Ae9h63irt5hN7bt-27" value="" style="edgeStyle=orthogonalEdgeStyle;rounded=0;orthogonalLoop=1;jettySize=auto;html=1;" edge="1" parent="1" source="CzPe7Ae9h63irt5hN7bt-26" target="CzPe7Ae9h63irt5hN7bt-17">
          <mxGeometry relative="1" as="geometry" />
        </mxCell>
        <mxCell id="CzPe7Ae9h63irt5hN7bt-17" value="Fine tuning with new data" style="ellipse;whiteSpace=wrap;html=1;fillColor=#b0e3e6;strokeColor=#0e8088;" vertex="1" parent="1">
          <mxGeometry x="560" y="305" width="80" height="80" as="geometry" />
        </mxCell>
        <mxCell id="CzPe7Ae9h63irt5hN7bt-20" style="edgeStyle=orthogonalEdgeStyle;rounded=0;orthogonalLoop=1;jettySize=auto;html=1;" edge="1" parent="1" source="CzPe7Ae9h63irt5hN7bt-19" target="0FTmsgRkvAeSvxOTB-Lc-1">
          <mxGeometry relative="1" as="geometry" />
        </mxCell>
        <mxCell id="CzPe7Ae9h63irt5hN7bt-21" style="edgeStyle=orthogonalEdgeStyle;rounded=0;orthogonalLoop=1;jettySize=auto;html=1;entryX=0.5;entryY=0;entryDx=0;entryDy=0;" edge="1" parent="1" source="CzPe7Ae9h63irt5hN7bt-19" target="0FTmsgRkvAeSvxOTB-Lc-2">
          <mxGeometry relative="1" as="geometry" />
        </mxCell>
        <mxCell id="CzPe7Ae9h63irt5hN7bt-22" style="edgeStyle=orthogonalEdgeStyle;rounded=0;orthogonalLoop=1;jettySize=auto;html=1;" edge="1" parent="1" source="CzPe7Ae9h63irt5hN7bt-19" target="0FTmsgRkvAeSvxOTB-Lc-4">
          <mxGeometry relative="1" as="geometry" />
        </mxCell>
        <mxCell id="CzPe7Ae9h63irt5hN7bt-24" style="edgeStyle=orthogonalEdgeStyle;rounded=0;orthogonalLoop=1;jettySize=auto;html=1;entryX=0.5;entryY=0;entryDx=0;entryDy=0;" edge="1" parent="1" source="CzPe7Ae9h63irt5hN7bt-19" target="0FTmsgRkvAeSvxOTB-Lc-5">
          <mxGeometry relative="1" as="geometry" />
        </mxCell>
        <mxCell id="CzPe7Ae9h63irt5hN7bt-25" style="edgeStyle=orthogonalEdgeStyle;rounded=0;orthogonalLoop=1;jettySize=auto;html=1;exitX=1;exitY=0.5;exitDx=0;exitDy=0;" edge="1" parent="1" source="CzPe7Ae9h63irt5hN7bt-19" target="0FTmsgRkvAeSvxOTB-Lc-6">
          <mxGeometry relative="1" as="geometry" />
        </mxCell>
        <mxCell id="CzPe7Ae9h63irt5hN7bt-19" value="Personalized&amp;nbsp; data" style="rounded=0;whiteSpace=wrap;html=1;fillColor=#f5f5f5;gradientColor=#b3b3b3;strokeColor=#666666;" vertex="1" parent="1">
          <mxGeometry x="350" y="20" width="120" height="60" as="geometry" />
        </mxCell>
        <mxCell id="CzPe7Ae9h63irt5hN7bt-26" value="Pre -Trained model based on&amp;nbsp;&amp;nbsp;Stable diffusion" style="ellipse;whiteSpace=wrap;html=1;fillColor=#e6d0de;gradientColor=#d5739d;strokeColor=#996185;" vertex="1" parent="1">
          <mxGeometry x="730" y="297.5" width="100" height="95" as="geometry" />
        </mxCell>
        <mxCell id="CzPe7Ae9h63irt5hN7bt-31" value="" style="edgeStyle=orthogonalEdgeStyle;rounded=0;orthogonalLoop=1;jettySize=auto;html=1;" edge="1" parent="1" source="CzPe7Ae9h63irt5hN7bt-28" target="CzPe7Ae9h63irt5hN7bt-17">
          <mxGeometry relative="1" as="geometry" />
        </mxCell>
        <mxCell id="CzPe7Ae9h63irt5hN7bt-28" value="Paired data from Web&amp;nbsp;scraping on Flipkart site" style="rounded=1;whiteSpace=wrap;html=1;fillColor=#ffe6cc;strokeColor=#d79b00;" vertex="1" parent="1">
          <mxGeometry x="540" y="430" width="120" height="60" as="geometry" />
        </mxCell>
        <mxCell id="CzPe7Ae9h63irt5hN7bt-32" value="" style="edgeStyle=orthogonalEdgeStyle;rounded=0;orthogonalLoop=1;jettySize=auto;html=1;" edge="1" parent="1" source="CzPe7Ae9h63irt5hN7bt-29" target="CzPe7Ae9h63irt5hN7bt-28">
          <mxGeometry relative="1" as="geometry" />
        </mxCell>
        <mxCell id="CzPe7Ae9h63irt5hN7bt-29" value="Web Scraping using&amp;nbsp;BeautifulSoup Library&amp;nbsp;" style="whiteSpace=wrap;html=1;rounded=1;fillColor=#d5e8d4;strokeColor=#82b366;" vertex="1" parent="1">
          <mxGeometry x="740" y="430" width="120" height="60" as="geometry" />
        </mxCell>
        <mxCell id="CzPe7Ae9h63irt5hN7bt-34" style="edgeStyle=orthogonalEdgeStyle;rounded=0;orthogonalLoop=1;jettySize=auto;html=1;entryX=0;entryY=0.5;entryDx=0;entryDy=0;" edge="1" parent="1" source="CzPe7Ae9h63irt5hN7bt-33" target="CzPe7Ae9h63irt5hN7bt-7">
          <mxGeometry relative="1" as="geometry">
            <mxPoint x="350" y="340" as="targetPoint" />
          </mxGeometry>
        </mxCell>
        <mxCell id="CzPe7Ae9h63irt5hN7bt-33" value="User input&amp;nbsp;" style="rounded=1;whiteSpace=wrap;html=1;fillColor=#ffcc99;strokeColor=#36393d;" vertex="1" parent="1">
          <mxGeometry x="110" y="315" width="120" height="60" as="geometry" />
        </mxCell>
        <mxCell id="CzPe7Ae9h63irt5hN7bt-35" value="Output image" style="shape=parallelogram;perimeter=parallelogramPerimeter;whiteSpace=wrap;html=1;fixedSize=1;fillColor=#cce5ff;strokeColor=#36393d;" vertex="1" parent="1">
          <mxGeometry x="350" y="505" width="120" height="60" as="geometry" />
        </mxCell>
      </root>
    </mxGraphModel>
  </diagram>
</mxfile>
